<?xml version="1.0" standalone="no"?>
<!DOCTYPE svg PUBLIC "-//W3C//DTD SVG 20010904//EN"
 "http://www.w3.org/TR/2001/REC-SVG-20010904/DTD/svg10.dtd">
<svg version="1.0" xmlns="http://www.w3.org/2000/svg"
 width="192.000000pt" height="192.000000pt" viewBox="0 0 192.000000 192.000000"
 preserveAspectRatio="xMidYMid meet">

<g transform="translate(0.000000,192.000000) scale(0.100000,-0.100000)"
fill="#000000" stroke="none">
<path d="M785 1746 c-283 -65 -505 -276 -596 -566 -32 -102 -34 -330 -5 -430
47 -158 113 -267 228 -376 221 -210 523 -276 810 -178 242 82 426 274 511 531
19 59 22 89 22 233 0 154 -2 170 -28 245 -46 134 -100 220 -201 321 -100 99
-178 149 -311 198 -72 26 -95 29 -225 32 -98 2 -164 -1 -205 -10z m15 -147 c0
-6 -23 -32 -52 -57 -53 -48 -98 -127 -98 -172 0 -82 61 -172 170 -248 38 -27
158 -100 266 -163 108 -63 218 -134 245 -159 138 -129 129 -304 -22 -415 -33
-24 -69 -47 -80 -50 -35 -11 -40 8 -14 48 56 82 37 178 -50 255 -24 21 -111
76 -194 122 -215 121 -297 175 -374 251 -90 90 -122 157 -122 259 0 55 6 87
22 121 39 86 122 161 223 200 52 21 80 24 80 8z m266 -34 c27 -8 83 -15 124
-15 85 -1 145 -21 191 -64 54 -51 28 -94 -37 -62 -44 21 -46 20 -42 -6 2 -18
16 -28 62 -44 62 -22 96 -52 96 -86 0 -35 -32 -88 -61 -103 -42 -22 -73 -5
-109 59 -36 63 -52 79 -77 74 -24 -4 -28 -40 -9 -77 24 -45 21 -97 -6 -115
-32 -23 -90 -20 -122 5 -57 45 -69 109 -52 271 9 74 8 79 -18 118 -14 22 -26
44 -26 50 0 14 29 13 86 -5z m-610 -852 c40 -55 86 -103 98 -103 6 0 22 21 36
47 29 54 54 73 71 56 7 -7 18 -45 26 -85 7 -40 18 -77 23 -82 7 -7 37 -1 88
17 43 15 83 27 89 27 25 0 20 -33 -13 -97 -19 -37 -32 -73 -30 -80 6 -14 98
-63 119 -63 7 0 22 -7 33 -15 19 -15 19 -15 0 -30 -42 -32 -222 -7 -334 46
-135 65 -262 234 -262 351 0 60 18 63 56 11z"/>
</g>
</svg>
