<?xml version="1.0" standalone="no"?>
<!DOCTYPE svg PUBLIC "-//W3C//DTD SVG 20010904//EN"
 "http://www.w3.org/TR/2001/REC-SVG-20010904/DTD/svg10.dtd">
<svg version="1.0" xmlns="http://www.w3.org/2000/svg"
 width="596.000000pt" height="347.000000pt" viewBox="0 0 596.000000 347.000000"
 preserveAspectRatio="xMidYMid meet">

<g transform="translate(0.000000,347.000000) scale(0.100000,-0.100000)"
fill="#000000" stroke="none">
<path d="M70 1790 l0 -1640 850 0 850 0 0 60 0 60 -790 0 -790 0 0 1520 0
1520 2630 0 2630 0 0 -1005 0 -1005 60 0 60 0 0 1065 0 1065 -2750 0 -2750 0
0 -1640z"/>
<path d="M2737 3039 c-50 -12 -117 -59 -164 -115 l-38 -45 -61 6 c-42 5 -80 2
-124 -9 -49 -13 -71 -14 -96 -6 -74 25 -133 -57 -89 -123 11 -17 12 -31 4 -67
-6 -25 -8 -72 -4 -105 l6 -60 -47 -39 c-53 -44 -100 -113 -115 -169 -22 -84
33 -207 122 -273 l34 -25 1 -92 c0 -77 4 -101 26 -148 45 -98 140 -146 270
-137 l70 5 67 -67 c100 -101 195 -124 299 -71 40 20 103 77 128 116 15 23 20
24 88 18 133 -11 229 36 278 135 19 40 23 62 23 145 0 53 2 97 6 97 3 0 29 23
58 51 72 71 95 119 95 199 0 83 -23 128 -102 202 l-60 55 5 70 c8 99 -15 172
-70 227 -53 53 -114 72 -219 69 l-77 -2 -68 68 c-55 55 -80 72 -123 85 -59 18
-68 18 -123 5z m129 -34 c45 -19 107 -68 134 -105 l20 -28 -37 -12 c-21 -7
-73 -28 -116 -48 l-77 -35 -63 30 c-34 17 -80 36 -102 43 -56 17 -60 24 -35
58 67 90 189 133 276 97z m-354 -151 c4 -3 -7 -32 -23 -64 -16 -32 -36 -83
-45 -113 -17 -53 -18 -54 -73 -71 -31 -9 -82 -30 -113 -45 -31 -16 -59 -26
-62 -23 -8 7 -7 121 0 150 5 16 14 22 36 22 43 0 78 39 78 88 0 35 3 40 33 50
35 11 160 16 169 6z m729 -5 c97 -30 149 -113 149 -239 l0 -80 -42 21 c-24 12
-76 34 -117 49 l-74 27 -27 74 c-15 41 -34 88 -43 106 -10 18 -17 37 -17 43 0
14 122 13 171 -1z m-970 -20 c31 -31 8 -89 -35 -89 -34 0 -58 23 -58 55 0 51
55 72 93 34z m407 -27 c45 -19 82 -37 82 -41 0 -3 -31 -26 -67 -51 -54 -37
-82 -48 -151 -61 l-84 -16 6 28 c3 16 22 64 42 109 42 92 32 90 172 32z m415
-74 c40 -99 41 -97 -55 -79 -68 13 -94 24 -145 60 -35 25 -63 48 -63 51 0 9
89 51 150 70 l55 18 16 -27 c8 -14 28 -56 42 -93z m-240 -23 l52 -35 -110 0
c-61 0 -105 4 -99 9 18 16 89 61 97 61 4 0 31 -16 60 -35z m205 -174 l109
-109 5 -78 c3 -44 3 -117 0 -164 l-5 -85 -106 -106 -106 -106 -80 -5 c-44 -3
-117 -3 -163 0 l-84 5 -109 109 -109 109 0 156 0 155 56 61 c30 34 82 86 115
115 l60 52 154 0 154 0 109 -109z m-553 19 c-43 -44 -80 -78 -82 -76 -3 3 18
119 23 125 3 3 107 28 129 30 5 1 -26 -35 -70 -79z m590 62 c38 -7 41 -10 52
-57 20 -87 16 -88 -62 -8 -41 42 -75 78 -75 80 0 2 10 1 23 -2 12 -3 40 -9 62
-13z m-693 -104 c-13 -70 -23 -93 -62 -150 -47 -67 -48 -67 -62 -45 -18 30
-36 71 -59 135 l-18 52 24 16 c26 17 163 73 181 74 7 0 6 -26 -4 -82z m900 35
c43 -20 78 -39 78 -42 -1 -18 -17 -29 -30 -21 -42 27 -120 -9 -120 -56 0 -26
-12 -31 -27 -11 -9 10 -33 135 -33 168 0 16 38 5 132 -38z m216 -174 c66 -109
29 -231 -99 -327 -14 -11 -19 -6 -34 40 -9 29 -30 81 -46 115 -25 53 -28 65
-18 87 9 18 20 26 38 26 30 1 53 16 69 47 17 31 15 57 -8 86 -34 43 -22 51 23
15 23 -19 57 -59 75 -89z m-1319 56 c10 -28 30 -76 46 -107 l28 -58 -31 -68
c-17 -37 -38 -85 -45 -107 -8 -21 -18 -40 -24 -42 -5 -2 -31 19 -58 46 -81 83
-104 173 -65 258 20 45 106 136 122 131 5 -2 18 -26 27 -53z m1193 8 c36 -33
13 -93 -37 -93 -52 0 -74 65 -33 94 29 20 47 20 70 -1z m-1014 -225 l-3 -53
-34 53 -33 52 33 52 34 53 3 -53 c2 -28 2 -76 0 -104z m883 75 c10 -19 9 -28
-6 -57 -10 -19 -27 -45 -37 -58 -17 -23 -18 -21 -17 87 l0 110 24 -29 c13 -16
29 -40 36 -53z m49 38 c0 -3 -4 -12 -9 -19 -6 -11 -10 -11 -18 0 -23 30 -22
35 2 30 14 -2 25 -7 25 -11z m-969 -163 c36 -52 47 -78 60 -145 15 -80 15 -83
-3 -83 -13 0 -18 7 -18 27 0 59 -76 94 -127 58 -17 -12 -53 -12 -53 0 0 25 78
205 89 205 4 0 27 -28 52 -62z m980 20 c20 -40 59 -143 59 -158 0 -16 -195
-98 -207 -87 -3 3 0 39 7 79 10 59 21 86 58 141 25 37 49 67 54 67 4 0 17 -19
29 -42z m-746 -286 c-1 -1 -30 4 -66 11 l-63 13 -13 59 c-7 33 -12 64 -13 68
0 5 35 -27 78 -70 43 -43 78 -79 77 -81z m580 126 c-3 -13 -9 -41 -13 -63 -8
-39 -9 -40 -66 -53 -32 -7 -60 -11 -62 -9 -5 5 128 143 139 146 4 0 5 -9 2
-21z m-820 -33 c14 -13 25 -29 25 -35 0 -6 -11 -22 -25 -35 -13 -14 -29 -25
-35 -25 -6 0 -22 11 -35 25 -14 13 -25 29 -25 35 0 6 11 22 25 35 13 14 29 25
35 25 6 0 22 -11 35 -25z m-115 -35 c0 -67 87 -105 135 -60 35 33 69 14 90
-52 10 -29 30 -79 45 -110 16 -31 26 -59 22 -62 -10 -11 -134 -6 -174 6 -53
16 -120 82 -136 134 -18 61 -16 174 3 174 10 0 15 -10 15 -30z m1170 -45 c0
-166 -80 -244 -248 -245 l-82 0 26 53 c15 28 37 81 49 116 l21 64 65 22 c35
12 82 31 104 43 63 33 65 31 65 -53z m-837 -37 c61 -10 82 -19 140 -62 79 -57
80 -53 -43 -100 -114 -43 -103 -46 -143 42 -43 94 -54 132 -38 132 7 0 44 -5
84 -12z m567 1 c0 -16 -60 -162 -74 -181 -12 -17 -17 -17 -62 -3 -27 9 -76 28
-108 43 l-60 28 70 49 c50 35 86 52 129 60 78 16 105 17 105 4z m-267 -54
c-29 -19 -57 -35 -63 -35 -6 0 -34 16 -63 35 l-52 35 115 0 115 0 -52 -35z m1
-104 c34 -15 85 -36 114 -46 46 -15 51 -19 40 -33 -88 -119 -200 -160 -305
-112 -42 18 -133 101 -133 119 0 5 28 19 63 31 34 11 82 32 107 45 25 13 47
24 49 25 2 0 31 -13 65 -29z"/>
<path d="M2700 2571 c-47 -15 -89 -41 -100 -60 -6 -12 -10 -114 -10 -259 0
-235 0 -239 23 -260 76 -71 290 -69 358 4 24 25 24 29 27 252 2 170 -1 233
-11 252 -22 44 -88 72 -180 76 -45 2 -93 0 -107 -5z m209 -44 c81 -39 81 -74
1 -114 -86 -44 -258 -23 -290 36 -22 43 29 86 119 100 64 10 118 3 170 -22z
m-244 -142 c59 -29 193 -27 258 2 l47 22 0 -50 c0 -39 -5 -55 -24 -74 -61 -61
-251 -61 -312 0 -19 19 -24 35 -24 75 0 29 3 50 8 48 4 -2 25 -13 47 -23z
m-29 -135 c5 -5 38 -17 73 -26 75 -19 154 -13 215 17 22 10 41 19 43 19 2 0 3
-20 3 -43 0 -70 -60 -106 -175 -107 -122 0 -185 37 -185 110 0 40 7 49 26 30z
m25 -142 c35 -17 62 -22 129 -22 67 0 94 5 129 22 25 12 46 22 48 22 2 0 3
-22 3 -49 0 -55 -14 -75 -65 -96 -84 -35 -210 -25 -265 22 -26 21 -30 32 -30
74 0 27 1 49 3 49 2 0 23 -10 48 -22z"/>
<path d="M2329 1056 c-139 -37 -230 -150 -230 -286 0 -33 5 -76 11 -95 15 -46
74 -95 152 -124 108 -42 134 -58 148 -91 10 -24 10 -40 2 -69 -16 -50 -42 -72
-95 -78 -45 -5 -92 11 -163 57 -41 26 -65 16 -116 -50 l-37 -49 33 -29 c135
-119 362 -114 485 10 41 40 82 126 89 184 15 132 -32 198 -188 264 -97 41
-126 61 -130 90 -6 39 2 64 29 91 41 40 104 40 180 -1 64 -34 74 -31 126 37
29 38 33 49 23 61 -38 45 -161 93 -238 91 -19 0 -56 -6 -81 -13z"/>
<path d="M5540 1054 c-106 -29 -188 -102 -226 -201 -9 -24 -15 -46 -12 -48 3
-3 35 -8 72 -12 73 -7 93 3 123 60 41 80 173 90 204 16 16 -40 5 -106 -21
-134 -26 -28 -59 -41 -122 -50 -44 -6 -48 -8 -48 -34 0 -16 -3 -42 -6 -58 -6
-29 -5 -29 62 -40 88 -15 108 -35 107 -104 -1 -57 -20 -90 -73 -126 -59 -41
-145 -21 -176 39 -25 51 -45 68 -75 68 -27 0 -105 -26 -122 -40 -13 -12 25
-109 59 -149 101 -117 339 -116 481 3 69 58 108 184 84 272 -11 40 -67 104
-102 116 -17 6 -17 6 46 39 66 34 95 88 95 173 -1 110 -53 181 -156 212 -59
18 -123 17 -194 -2z"/>
<path d="M3062 898 c-42 -89 -138 -291 -213 -448 l-137 -285 86 -3 c112 -4
125 6 172 121 l35 87 152 0 c136 0 152 -2 157 -17 2 -10 10 -51 17 -91 16 -94
27 -102 136 -102 46 0 83 3 83 8 1 4 -45 206 -101 450 l-103 442 -103 0 -104
0 -77 -162z m195 -205 c17 -98 29 -181 26 -185 -2 -5 -51 -8 -109 -8 -76 0
-104 3 -104 12 0 18 142 358 150 358 3 0 20 -80 37 -177z"/>
<path d="M3840 1056 c0 -10 -100 -823 -106 -858 l-6 -38 250 0 c285 0 256 -11
267 98 l7 62 -152 0 -152 0 6 38 c6 36 86 685 86 696 0 3 -45 6 -100 6 -55 0
-100 -2 -100 -4z"/>
<path d="M4502 628 c-29 -238 -53 -441 -52 -450 0 -17 19 -18 264 -18 l264 0
6 40 c3 22 9 58 12 80 l6 40 -166 0 c-192 0 -174 -16 -155 132 l12 88 127 0
127 0 9 75 10 75 -129 0 -129 0 6 28 c3 15 8 52 11 82 3 30 8 67 11 83 l6 27
163 0 163 0 6 28 c2 15 8 48 11 75 l6 47 -268 0 -269 0 -52 -432z"/>
</g>
</svg>
